<svg height="512pt" viewBox="0 0 512 512" width="512pt" xmlns="http://www.w3.org/2000/svg"><path d="m502 80h-442v-70c0-5.523438-4.476562-10-10-10-27.570312 0-50 22.429688-50 50v412c0 27.570312 22.429688 50 50 50h452c5.523438 0 10-4.476562 10-10v-412c0-5.523438-4.476562-10-10-10zm-462-58.285156v391.292968c-7.386719 1.503907-14.183594 4.640626-20 9.019532v-372.027344c0-13.039062 8.359375-24.160156 20-28.285156zm452 470.285156h-442c-16.542969 0-30-13.457031-30-30s13.457031-30 30-30c5.523438 0 10-4.476562 10-10v-322h432zm0 0"/><path d="m116.761719 289.828125c1.546875 3.734375 5.191406 6.171875 9.238281 6.171875h22v142c0 5.523438 4.476562 10 10 10h192c5.523438 0 10-4.476562 10-10v-142h22c4.042969 0 7.691406-2.4375 9.238281-6.171875 1.546875-3.738281.691407-8.039063-2.167969-10.898437l-128-128c-3.902343-3.90625-10.234374-3.90625-14.140624 0l-128 128c-2.859376 2.859374-3.714844 7.160156-2.167969 10.898437zm119.238281 138.171875v-76h36v76zm104 0h-48v-86c0-5.523438-4.476562-10-10-10h-56c-5.523438 0-10 4.476562-10 10v86h-48v-132h172zm-86-255.859375 103.859375 103.859375h-207.71875zm0 0"/><path d="m426 333c-5.523438 0-10 4.476562-10 10v85h-18c-5.523438 0-10 4.476562-10 10s4.476562 10 10 10h28c5.523438 0 10-4.476562 10-10v-95c0-5.523438-4.476562-10-10-10zm0 0"/><path d="m350 168h66v85c0 5.523438 4.476562 10 10 10s10-4.476562 10-10v-95c0-5.523438-4.476562-10-10-10h-76c-5.523438 0-10 4.476562-10 10s4.476562 10 10 10zm0 0"/><path d="m426 288c-2.628906 0-5.210938 1.070312-7.070312 2.929688-1.859376 1.859374-2.929688 4.441406-2.929688 7.070312s1.070312 5.210938 2.929688 7.070312c1.859374 1.859376 4.441406 2.929688 7.070312 2.929688s5.210938-1.070312 7.070312-2.929688c1.859376-1.859374 2.929688-4.441406 2.929688-7.070312s-1.070312-5.210938-2.929688-7.070312c-1.859374-1.859376-4.441406-2.929688-7.070312-2.929688zm0 0"/></svg>